<svg width="45" height="46" viewBox="0 0 45 46" fill="none" xmlns="http://www.w3.org/2000/svg">
<rect width="45" height="45" fill="#800000"/>
<path d="M43.9219 44.3203C43.9219 44.4453 43.8438 44.5156 43.6875 44.5312C43.5312 44.5312 43.3672 44.5312 43.1953 44.5312C43.1172 44.5469 43.0391 44.5625 42.9609 44.5781C42.8828 44.6094 42.7969 44.6406 42.7031 44.6719C42.625 44.6875 42.5469 44.7344 42.4688 44.8125C42.5 44.9688 42.5078 45.0859 42.4922 45.1641C42.4922 45.2578 42.4922 45.3281 42.4922 45.375L42.4688 45.4688C42.4219 45.5312 42.3281 45.5781 42.1875 45.6094C42.0469 45.6562 41.8984 45.6797 41.7422 45.6797C41.7109 45.6797 41.6641 45.6719 41.6016 45.6562C41.4922 45.625 41.3828 45.5469 41.2734 45.4219C41.0078 45.3438 40.6953 45.2656 40.3359 45.1875C40.1484 45.1406 39.9453 45.0938 39.7266 45.0469C39.5547 45 39.4062 44.875 39.2812 44.6719C39.1562 44.4688 39.0391 44.2344 38.9297 43.9688C38.8359 43.6875 38.7422 43.4062 38.6484 43.125C38.5703 42.8281 38.5 42.5703 38.4375 42.3516L36.1406 35.1094C35.7969 35.1094 35.3594 35.1172 34.8281 35.1328C34.3125 35.1328 33.7578 35.1406 33.1641 35.1562C32.5703 35.1562 31.9688 35.1719 31.3594 35.2031C30.75 35.2188 30.1953 35.2344 29.6953 35.25L25.0078 35.4844L22.2656 42.6562C22.2188 42.7344 22.1484 42.8906 22.0547 43.125C21.9766 43.3594 21.8906 43.6094 21.7969 43.875C21.7031 44.125 21.6172 44.3672 21.5391 44.6016C21.4609 44.8203 21.4141 44.9531 21.3984 45C21.3672 45.125 21.2734 45.2031 21.1172 45.2344C20.9609 45.2656 20.8281 45.2969 20.7188 45.3281C20.625 45.3594 20.5469 45.4453 20.4844 45.5859C20.4219 45.7266 20.3281 45.8203 20.2031 45.8672C20.0781 45.9453 19.9219 45.9531 19.7344 45.8906C19.5469 45.8281 19.3828 45.7266 19.2422 45.5859C19.1172 45.4297 19.0703 45.2344 19.1016 45C19.1328 44.75 19.1484 44.4922 19.1484 44.2266C19.1484 43.9609 19.1406 43.7109 19.125 43.4766C19.125 43.2422 19.1641 43.0156 19.2422 42.7969C19.2734 42.7031 19.3672 42.4141 19.5234 41.9297C19.6953 41.4297 19.9062 40.8359 20.1562 40.1484C20.4062 39.4453 20.6797 38.6875 20.9766 37.875C21.2734 37.0469 21.5781 36.25 21.8906 35.4844C21.6094 35.4844 21.4141 35.4062 21.3047 35.25C21.2266 35.125 21.1328 35.0547 21.0234 35.0391C20.9141 35.0078 20.7969 34.9688 20.6719 34.9219C20.5469 34.8906 20.4609 34.8203 20.4141 34.7109C20.3672 34.6016 20.3594 34.5078 20.3906 34.4297C20.4219 34.3359 20.3984 34.2578 20.3203 34.1953C20.2422 34.1328 20.2031 33.9922 20.2031 33.7734C20.2031 33.6797 20.2734 33.5938 20.4141 33.5156C20.5703 33.4219 20.7578 33.3438 20.9766 33.2812C21.1953 33.2188 21.4375 33.1641 21.7031 33.1172C21.9844 33.0703 22.25 33.0312 22.5 33C22.5469 33 22.6016 33 22.6641 33C22.7422 33 22.8203 32.9844 22.8984 32.9531C23.2422 32.125 23.6328 31.2344 24.0703 30.2812C24.5078 29.3125 24.9531 28.3281 25.4062 27.3281C25.875 26.3281 26.3438 25.3281 26.8125 24.3281C27.2812 23.3281 27.7266 22.3906 28.1484 21.5156C28.5703 20.625 28.9531 19.8125 29.2969 19.0781C29.6562 18.3438 29.9531 17.7344 30.1875 17.25C30 16.6719 29.8281 16.1406 29.6719 15.6562C29.5312 15.1719 29.4062 14.75 29.2969 14.3906C29.1875 14.0313 29.1016 13.75 29.0391 13.5469C28.9766 13.3281 28.9453 13.2031 28.9453 13.1719C28.9297 13.1406 28.9297 13.1094 28.9453 13.0781C28.9766 13 29.0547 12.9531 29.1797 12.9375C29.0547 12.7031 28.9922 12.5313 28.9922 12.4219C28.9922 12.3594 29.0078 12.3203 29.0391 12.3047C29.0703 12.2734 29.1484 12.2422 29.2734 12.2109C29.3984 12.1797 29.5312 12.1563 29.6719 12.1406C29.8125 12.1094 29.9453 12.0938 30.0703 12.0938C30.1953 12.0781 30.2812 12.0703 30.3281 12.0703C30.3438 12.0703 30.3828 12.0781 30.4453 12.0938C30.5391 12.125 30.6719 12.1953 30.8438 12.3047C30.8594 12.2266 30.875 12.1719 30.8906 12.1406C30.9219 12.1094 30.9531 12.0781 30.9844 12.0469L31.0547 11.9766C31.1484 11.9297 31.25 11.9219 31.3594 11.9531C31.4688 11.9688 31.5703 11.9766 31.6641 11.9766C31.7578 11.9766 31.8203 11.9375 31.8516 11.8594C31.8984 11.7813 32 11.7422 32.1562 11.7422C32.3594 11.7422 32.5312 11.9609 32.6719 12.3984C32.6875 12.4766 32.7969 12.7734 33 13.2891C33.2031 13.7891 33.4609 14.4531 33.7734 15.2812C34.0859 16.0938 34.4453 17.0391 34.8516 18.1172C35.2734 19.1953 35.7109 20.3438 36.1641 21.5625C36.6172 22.7656 37.0703 24.0156 37.5234 25.3125C37.9922 26.5938 38.4375 27.8594 38.8594 29.1094C39.7344 31.6562 40.4688 33.8047 41.0625 35.5547C41.6562 37.3047 42.1328 38.7344 42.4922 39.8438C42.8672 40.9531 43.1406 41.7812 43.3125 42.3281C43.5 42.875 43.6172 43.2031 43.6641 43.3125C43.7422 43.5625 43.8047 43.7656 43.8516 43.9219C43.8984 44.0625 43.9219 44.1953 43.9219 44.3203ZM33.8203 28.2891C33.4141 27.1328 32.9688 25.8359 32.4844 24.3984C32.0156 22.9609 31.5547 21.5391 31.1016 20.1328C30.8359 20.8203 30.5156 21.6484 30.1406 22.6172C29.7656 23.5859 29.3672 24.5859 28.9453 25.6172C28.5391 26.6484 28.1406 27.6562 27.75 28.6406C27.3594 29.625 27.0156 30.4688 26.7188 31.1719L26.0625 32.7188L30.2812 32.4609C30.6406 32.4609 31.0703 32.4531 31.5703 32.4375C32.4141 32.4219 33.6328 32.3984 35.2266 32.3672L33.8203 28.2891Z" fill="white"/>
</svg>
